<?xml version="1.0" standalone="no"?>
<!DOCTYPE svg PUBLIC "-//W3C//DTD SVG 20010904//EN"
 "http://www.w3.org/TR/2001/REC-SVG-20010904/DTD/svg10.dtd">
<svg version="1.0" xmlns="http://www.w3.org/2000/svg"
 width="400.000000pt" height="400.000000pt" viewBox="0 0 400.000000 400.000000"
 preserveAspectRatio="xMidYMid meet">
<metadata>
Created by potrace 1.11, written by Peter Selinger 2001-2013
</metadata>
<g transform="translate(0.000000,400.000000) scale(0.100000,-0.100000)"
fill="#000000" stroke="none">
<path d="M0 2000 l0 -2000 2000 0 2000 0 0 2000 0 2000 -2000 0 -2000 0 0
-2000z m1053 1756 c122 -46 269 -102 327 -124 58 -21 219 -82 358 -135 139
-54 257 -97 263 -97 9 0 517 194 629 239 25 11 61 24 80 29 32 9 148 53 375
141 44 17 84 31 90 31 7 0 9 -80 7 -235 -3 -226 -3 -235 -22 -235 -19 0 -20 8
-20 200 0 139 -3 200 -11 200 -6 0 -68 -22 -138 -49 -69 -27 -178 -68 -241
-91 -63 -24 -153 -58 -200 -76 -467 -180 -479 -184 -551 -184 -74 0 -60 -5
-649 222 -85 33 -173 66 -195 73 -22 7 -93 34 -158 59 -66 25 -123 46 -128 46
-5 0 -9 -88 -9 -201 l0 -200 -22 3 -23 3 -3 233 c-2 162 1 232 8 232 6 0 111
-38 233 -84z m-273 -184 l0 -199 -30 5 -30 4 0 194 0 194 30 0 30 0 0 -198z
m2498 1 l-3 -197 -30 -1 -30 0 -3 198 -2 197 35 0 35 0 -2 -197z m152 -828 l0
-585 -1395 0 -1395 0 0 585 0 585 1395 0 1395 0 0 -585z m-2650 -972 l1 -348
281 -285 c155 -157 429 -434 609 -616 l328 -331 288 291 c158 160 430 435 605
612 l319 321 2 349 2 349 33 3 32 3 0 -369 0 -369 -388 -394 c-213 -216 -501
-508 -640 -649 l-253 -255 -332 336 c-183 185 -470 476 -639 648 l-308 312 0
369 0 370 30 0 30 0 0 -347z m80 35 l1 -313 166 -170 c683 -698 975 -988 982
-976 5 7 163 169 352 359 189 191 442 446 561 568 l218 220 0 312 c0 305 0
312 20 312 20 0 20 -7 20 -337 l-1 -338 -593 -599 -592 -599 -21 26 c-11 14
-277 286 -591 604 l-572 578 0 333 0 332 25 0 25 0 0 -312z m1220 305 c0 -5
-16 -66 -35 -138 -19 -71 -35 -137 -35 -146 0 -14 24 -8 140 32 l139 48 59
-77 c32 -42 61 -82 65 -89 8 -13 -24 -133 -35 -133 -5 0 -8 15 -8 33 0 24 -3
28 -10 17 -15 -24 -12 -66 9 -102 11 -18 24 -65 31 -105 6 -40 18 -77 26 -84
8 -6 14 -29 14 -50 0 -38 -3 -41 -69 -84 -53 -35 -79 -45 -110 -45 -43 0 -55
-14 -21 -25 25 -8 25 -13 0 -45 -11 -14 -20 -41 -20 -61 0 -20 -7 -42 -15 -49
-13 -11 -15 -8 -15 14 0 30 -19 36 -21 6 -1 -11 -2 -25 -3 -32 0 -7 -16 -20
-33 -31 l-33 -19 0 36 c0 20 -4 36 -10 36 -5 0 -10 -15 -10 -32 0 -39 -7 -51
-37 -67 -32 -16 -33 -15 -33 29 0 22 -4 40 -10 40 -5 0 -10 -18 -10 -40 0 -45
0 -46 -40 -25 -27 14 -30 21 -30 61 0 28 -4 43 -10 39 -5 -3 -10 -22 -10 -41
0 -20 -3 -34 -7 -32 -61 29 -63 32 -63 65 0 18 -4 33 -10 33 -5 0 -10 -11 -10
-25 0 -18 -4 -23 -15 -19 -10 4 -15 20 -15 44 0 22 -8 48 -20 63 -25 32 -25
41 3 60 21 16 21 16 -22 16 -34 1 -60 11 -112 43 -66 41 -69 44 -69 81 0 21 6
48 14 60 8 12 18 45 21 72 4 28 19 76 32 108 22 48 24 62 15 90 -10 31 -10 31
-11 5 -2 -46 -17 -39 -34 16 -9 29 -17 58 -17 65 0 12 66 104 113 158 l19 21
139 -48 c88 -31 139 -45 139 -37 0 7 -16 71 -35 142 -19 72 -35 136 -35 143 0
8 23 12 80 12 44 0 80 -3 80 -7z"/>
<path d="M722 2748 l3 -503 1313 -2 1312 -2 0 504 0 505 -1315 0 -1315 0 2
-502z m2596 85 l2 -383 -1285 0 -1285 0 0 378 c0 208 3 382 7 385 3 4 580 6
1282 4 l1276 -2 3 -382z m0 -480 l3 -73 -1286 0 -1285 0 0 68 c0 38 3 72 7 75
3 4 581 6 1282 5 l1276 -3 3 -72z"/>
<path d="M2735 2869 c-88 -172 -161 -316 -163 -320 -2 -5 34 -9 80 -9 l84 0
21 50 21 50 114 0 115 0 23 -50 23 -50 84 0 c46 0 83 3 83 8 0 4 -9 22 -20 39
-11 18 -83 159 -160 313 -77 154 -142 280 -143 280 -1 0 -74 -140 -162 -311z
m215 -100 c0 -11 -107 -12 -113 -1 -2 4 9 36 26 72 l29 65 29 -64 c16 -35 29
-68 29 -72z"/>
<path d="M979 3147 c-74 -35 -119 -102 -119 -174 0 -93 54 -156 164 -193 61
-20 96 -41 96 -58 0 -4 -7 -18 -16 -30 -21 -30 -95 -31 -144 -1 l-35 21 -42
-47 c-24 -26 -43 -51 -43 -56 0 -6 30 -24 68 -42 76 -36 167 -47 227 -27 44
14 100 62 121 101 16 31 19 125 5 162 -15 39 -67 84 -118 102 -27 10 -61 22
-76 28 -16 5 -36 21 -44 34 -15 22 -15 26 1 41 21 21 81 20 126 -3 l34 -17 38
43 c21 24 37 50 35 58 -1 7 -24 25 -52 40 -39 20 -66 26 -125 28 -43 1 -86 -3
-101 -10z"/>
<path d="M1767 3133 c-4 -3 -7 -138 -7 -300 l0 -293 200 0 200 0 0 70 0 70
-120 0 -120 0 0 230 0 230 -73 0 c-41 0 -77 -3 -80 -7z"/>
<path d="M1456 2614 c-21 -20 -20 -37 3 -65 16 -20 23 -22 46 -14 36 13 48 46
29 74 -18 25 -56 27 -78 5z"/>
<path d="M2315 2606 c-20 -31 -6 -63 31 -72 46 -12 85 51 52 84 -21 21 -66 14
-83 -12z"/>
<path d="M1050 2340 c0 -22 5 -40 10 -40 6 0 10 18 10 40 0 22 -4 40 -10 40
-5 0 -10 -18 -10 -40z"/>
<path d="M1890 2342 c0 -23 5 -42 10 -42 6 0 10 10 10 22 l0 21 25 -23 25 -23
0 41 c0 23 -4 42 -10 42 -5 0 -10 -10 -10 -22 l0 -21 -25 23 -25 23 0 -41z"/>
<path d="M2870 2340 c0 -33 3 -40 19 -40 20 0 51 24 51 40 0 16 -31 40 -51 40
-16 0 -19 -7 -19 -40z m46 9 c3 -6 -1 -18 -10 -27 -15 -15 -16 -14 -16 11 0
27 13 36 26 16z"/>
<path d="M1691 1503 c-23 -22 -31 -40 -36 -83 l-6 -55 50 -32 c64 -42 104 -43
159 -3 89 64 82 102 -27 159 -43 22 -86 41 -95 41 -9 0 -29 -12 -45 -27z"/>
<path d="M2165 1487 c-68 -36 -81 -47 -83 -71 -6 -49 74 -116 139 -116 45 0
131 64 125 93 -3 12 -8 39 -11 59 -6 37 -46 78 -77 78 -7 0 -49 -20 -93 -43z"/>
<path d="M1955 1293 c-42 -101 -49 -131 -36 -147 7 -9 24 -16 37 -16 20 0 23
6 29 55 4 30 11 55 15 55 4 0 10 -23 12 -51 7 -69 36 -86 66 -38 12 18 9 32
-19 100 -30 72 -35 79 -61 79 -23 0 -31 -7 -43 -37z"/>
</g>
</svg>
